<svg width="100" height="48" viewBox="0 0 100 48" fill="none" xmlns="http://www.w3.org/2000/svg">
<g opacity="0.9" filter="url(#filter0_d_7_80)">
<rect x="4" width="92" height="40" rx="5" fill="url(#paint0_linear_7_80)"/>
</g>
<path d="M24.8672 16.9023C24.75 15.7891 23.8516 15.125 22.4258 15.125C20.9414 15.125 20.1211 15.8086 20.1016 16.7461C20.082 17.7617 21.1562 18.2305 22.3672 18.5039L23.6367 18.8164C26.0586 19.3633 27.875 20.5938 27.875 22.957C27.875 25.5547 25.8438 27.1953 22.4062 27.1953C18.9883 27.1953 16.8008 25.6133 16.7227 22.5859H19.5742C19.6719 24.0117 20.8047 24.7344 22.3672 24.7344C23.9102 24.7344 24.9062 24.0117 24.9062 22.957C24.9062 22 24.0273 21.5508 22.4844 21.1602L20.9414 20.7891C18.5586 20.2031 17.0938 19.0117 17.0938 16.9414C17.0938 14.3633 19.3594 12.6641 22.4453 12.6641C25.5703 12.6641 27.6406 14.4023 27.6797 16.9023H24.8672ZM29.2422 15.2812V12.8594H40.8242V15.2812H36.4883V27H33.5781V15.2812H29.2422ZM54.9648 19.9297C54.9648 24.5391 52.0938 27.1953 48.3633 27.1953C44.5938 27.1953 41.7422 24.5195 41.7422 19.9297C41.7422 15.3203 44.5938 12.6641 48.3633 12.6641C52.0938 12.6641 54.9648 15.3203 54.9648 19.9297ZM51.9766 19.9297C51.9766 16.9023 50.5508 15.2617 48.3633 15.2617C46.1758 15.2617 44.7305 16.9023 44.7305 19.9297C44.7305 22.957 46.1758 24.5977 48.3633 24.5977C50.5508 24.5977 51.9766 22.957 51.9766 19.9297ZM57.0742 27V12.8594H62.6211C65.8438 12.8594 67.6797 14.832 67.6797 17.625C67.6797 20.457 65.8047 22.3906 62.543 22.3906H60.0039V27H57.0742ZM60.0039 20.0273H62.0742C63.8125 20.0273 64.6523 19.0508 64.6523 17.625C64.6523 16.2188 63.8125 15.2617 62.0742 15.2617H60.0039V20.0273ZM80.1602 12.8594V27H77.2109V15.6523H77.1328L73.8906 17.6836V15.0859L77.3867 12.8594H80.1602Z" fill="black"/>
<defs>
<filter id="filter0_d_7_80" x="0" y="0" width="100" height="48" filterUnits="userSpaceOnUse" color-interpolation-filters="sRGB">
<feFlood flood-opacity="0" result="BackgroundImageFix"/>
<feColorMatrix in="SourceAlpha" type="matrix" values="0 0 0 0 0 0 0 0 0 0 0 0 0 0 0 0 0 0 127 0" result="hardAlpha"/>
<feOffset dy="4"/>
<feGaussianBlur stdDeviation="2"/>
<feComposite in2="hardAlpha" operator="out"/>
<feColorMatrix type="matrix" values="0 0 0 0 0 0 0 0 0 0 0 0 0 0 0 0 0 0 0.25 0"/>
<feBlend mode="normal" in2="BackgroundImageFix" result="effect1_dropShadow_7_80"/>
<feBlend mode="normal" in="SourceGraphic" in2="effect1_dropShadow_7_80" result="shape"/>
</filter>
<linearGradient id="paint0_linear_7_80" x1="4" y1="20" x2="96" y2="20" gradientUnits="userSpaceOnUse">
<stop stop-color="#DE0126"/>
<stop offset="0.490385" stop-color="#EE6B6E"/>
<stop offset="1" stop-color="#DE0A26"/>
</linearGradient>
</defs>
</svg>
