<svg width="100" height="48" viewBox="0 0 100 48" fill="none" xmlns="http://www.w3.org/2000/svg">
<g filter="url(#filter0_d_7_78)">
<rect x="4" width="92" height="40" rx="5" fill="url(#paint0_linear_7_78)"/>
</g>
<path d="M23.8672 16.9023C23.75 15.7891 22.8516 15.125 21.4258 15.125C19.9414 15.125 19.1211 15.8086 19.1016 16.7461C19.082 17.7617 20.1562 18.2305 21.3672 18.5039L22.6367 18.8164C25.0586 19.3633 26.875 20.5938 26.875 22.957C26.875 25.5547 24.8438 27.1953 21.4062 27.1953C17.9883 27.1953 15.8008 25.6133 15.7227 22.5859H18.5742C18.6719 24.0117 19.8047 24.7344 21.3672 24.7344C22.9102 24.7344 23.9062 24.0117 23.9062 22.957C23.9062 22 23.0273 21.5508 21.4844 21.1602L19.9414 20.7891C17.5586 20.2031 16.0938 19.0117 16.0938 16.9414C16.0938 14.3633 18.3594 12.6641 21.4453 12.6641C24.5703 12.6641 26.6406 14.4023 26.6797 16.9023H23.8672ZM28.2422 15.2812V12.8594H39.8242V15.2812H35.4883V27H32.5781V15.2812H28.2422ZM53.9648 19.9297C53.9648 24.5391 51.0938 27.1953 47.3633 27.1953C43.5938 27.1953 40.7422 24.5195 40.7422 19.9297C40.7422 15.3203 43.5938 12.6641 47.3633 12.6641C51.0938 12.6641 53.9648 15.3203 53.9648 19.9297ZM50.9766 19.9297C50.9766 16.9023 49.5508 15.2617 47.3633 15.2617C45.1758 15.2617 43.7305 16.9023 43.7305 19.9297C43.7305 22.957 45.1758 24.5977 47.3633 24.5977C49.5508 24.5977 50.9766 22.957 50.9766 19.9297ZM56.0742 27V12.8594H61.6211C64.8438 12.8594 66.6797 14.832 66.6797 17.625C66.6797 20.457 64.8047 22.3906 61.543 22.3906H59.0039V27H56.0742ZM59.0039 20.0273H61.0742C62.8125 20.0273 63.6523 19.0508 63.6523 17.625C63.6523 16.2188 62.8125 15.2617 61.0742 15.2617H59.0039V20.0273ZM73.0664 27L73.0469 24.8711L78.125 20.2031C79.4531 18.9336 80.1562 18.1523 80.1562 17.0391C80.1562 15.7891 79.1992 15.0078 77.9102 15.0078C76.582 15.0078 75.7227 15.8477 75.7227 17.1953H72.9297C72.9102 14.4219 74.9609 12.6641 77.9492 12.6641C80.9766 12.6641 82.9883 14.3828 82.9883 16.8438C82.9883 18.4453 82.207 19.7734 79.2969 22.4102L77.1484 24.5V24.5781H83.1836V27H73.0664Z" fill="black"/>
<defs>
<filter id="filter0_d_7_78" x="0" y="0" width="100" height="48" filterUnits="userSpaceOnUse" color-interpolation-filters="sRGB">
<feFlood flood-opacity="0" result="BackgroundImageFix"/>
<feColorMatrix in="SourceAlpha" type="matrix" values="0 0 0 0 0 0 0 0 0 0 0 0 0 0 0 0 0 0 127 0" result="hardAlpha"/>
<feOffset dy="4"/>
<feGaussianBlur stdDeviation="2"/>
<feComposite in2="hardAlpha" operator="out"/>
<feColorMatrix type="matrix" values="0 0 0 0 0 0 0 0 0 0 0 0 0 0 0 0 0 0 0.25 0"/>
<feBlend mode="normal" in2="BackgroundImageFix" result="effect1_dropShadow_7_78"/>
<feBlend mode="normal" in="SourceGraphic" in2="effect1_dropShadow_7_78" result="shape"/>
</filter>
<linearGradient id="paint0_linear_7_78" x1="4" y1="20" x2="96" y2="20" gradientUnits="userSpaceOnUse">
<stop stop-color="#00FFA3"/>
<stop offset="0.490385" stop-color="#C7E9C7"/>
<stop offset="1" stop-color="#00FFA3"/>
</linearGradient>
</defs>
</svg>
